<!-- Generated by IcoMoon.io -->
<svg version="1.1" xmlns="http://www.w3.org/2000/svg" width="768" height="768" viewBox="0 0 768 768">
<title></title>
<g id="icomoon-ignore">
</g>
<path fill="#000" d="M707.2 294.4c-16-19.2-38.4-35.2-64-38.4-6.4 0-9.6 0-16 0h-147.2v-96c0-70.4-57.6-128-128-128-12.8 0-25.6 6.4-28.8 19.2l-118.4 268.8h-76.8c-54.4 0-96 41.6-96 96v224c0 54.4 41.6 96 96 96h457.6c0 0 0 0 0 0 48 0 86.4-35.2 96-80l44.8-288c3.2-25.6-3.2-51.2-19.2-73.6zM192 672h-64c-19.2 0-32-12.8-32-32v-224c0-19.2 12.8-32 32-32h64v288zM617.6 646.4c-3.2 16-16 25.6-32 25.6 0 0 0 0 0 0h-329.6v-313.6l115.2-259.2c25.6 9.6 44.8 32 44.8 60.8v128c0 19.2 12.8 32 32 32h182.4c3.2 0 3.2 0 6.4 0 9.6 0 16 6.4 22.4 12.8s6.4 16 6.4 22.4l-48 291.2z"></path>
</svg>
