<!-- Generated by IcoMoon.io -->
<svg version="1.1" xmlns="http://www.w3.org/2000/svg" width="768" height="768" viewBox="0 0 768 768">
<title></title>
<g id="icomoon-ignore">
</g>
<path fill="#000" d="M736 124.8c-6.4-54.4-51.2-92.8-105.6-92.8 0 0 0 0-3.2 0h-444.8c-48 0-86.4 35.2-96 80l-44.8 288c-6.4 51.2 28.8 102.4 80 108.8 6.4 0 9.6 0 16 0h150.4v96c0 70.4 57.6 128 128 128 12.8 0 25.6-6.4 28.8-19.2l118.4-268.8h64c54.4 0 99.2-38.4 105.6-92.8 0 0 0-3.2 0-3.2v-220.8c3.2 0 3.2-3.2 3.2-3.2zM512 409.6l-115.2 259.2c-25.6-9.6-44.8-32-44.8-60.8v-128c0-19.2-12.8-32-32-32h-182.4c0 0-3.2 0-6.4 0-16-3.2-28.8-19.2-25.6-35.2l44.8-288c3.2-16 16-28.8 32-28.8h329.6v313.6zM672 348.8c-3.2 19.2-22.4 35.2-41.6 35.2h-54.4v-288h54.4c19.2-3.2 38.4 12.8 41.6 35.2v217.6z"></path>
</svg>
